<svg width="200" height="200" viewBox="0 0 200 200" fill="none" xmlns="http://www.w3.org/2000/svg">
<path fill-rule="evenodd" clip-rule="evenodd" d="M100 184C146.392 184 184 146.392 184 100C184 53.6081 146.392 16 100 16C53.6081 16 16 53.6081 16 100C16 146.392 53.6081 184 100 184ZM78.1796 78.0874C77.504 70.8411 79.1175 65.6167 81.7509 62.2056C84.3124 58.8874 88.6342 56.2448 95.5728 55.5979C102.552 54.9473 107.813 56.7327 111.397 59.6898C114.975 62.643 117.695 67.4364 118.339 74.3433C118.782 79.097 117.921 82.1127 116.787 84.2248C115.587 86.458 113.703 88.3862 111.04 90.3709C109.704 91.3665 108.27 92.3068 106.682 93.3183C106.391 93.5038 106.088 93.6958 105.776 93.893L105.776 93.8932L105.775 93.8936C104.49 94.7078 103.065 95.6104 101.762 96.5072C98.7331 98.5906 94.3091 101.941 92.1879 107.28C89.4468 114.179 88.5979 119.476 88.8253 123.769C88.9398 125.931 89.3166 127.615 89.671 128.861C89.7541 129.154 89.8322 129.408 89.8926 129.603C89.9194 129.689 89.9384 129.75 89.9532 129.797C90.8509 134.354 95.0718 137.582 99.7965 137.141C104.837 136.671 108.543 132.204 108.073 127.163C107.964 125.992 107.656 124.991 107.565 124.694L107.565 124.694L107.565 124.694L107.554 124.657C107.476 124.402 107.435 124.273 107.405 124.179C107.371 124.069 107.35 124.006 107.306 123.848C107.229 123.58 107.158 123.28 107.133 122.799C107.081 121.809 107.183 119.196 109.218 114.068L109.218 114.07L109.218 114.071C109.218 114.072 109.222 114.067 109.229 114.057C109.309 113.946 109.856 113.192 112.152 111.612C113.142 110.931 114.186 110.269 115.433 109.478L115.433 109.478L115.434 109.478L115.434 109.478L115.436 109.476L115.449 109.468C115.793 109.25 116.153 109.022 116.531 108.781C118.193 107.723 120.096 106.487 121.995 105.071C125.804 102.233 129.986 98.3975 132.939 92.8977C135.957 87.2766 137.334 80.5895 136.593 72.6414C135.563 61.5983 130.931 52.04 123.066 45.5496C115.205 39.0628 104.932 36.3125 93.8709 37.3437C82.7699 38.3787 73.4203 42.9949 67.2386 51.0026C61.1288 58.9172 58.9275 69.0856 59.9254 79.7893C60.3954 84.83 64.8627 88.5354 69.9034 88.0654C74.9442 87.5955 78.6496 83.1282 78.1796 78.0874ZM90.0149 129.995C90.0512 130.114 90.0415 130.098 90.0115 129.984L90.0149 129.995ZM104.546 163.397C109.587 162.927 113.292 158.46 112.822 153.419C112.352 148.378 107.885 144.673 102.844 145.143C97.8034 145.613 94.0981 150.08 94.568 155.121C95.038 160.162 99.5053 163.867 104.546 163.397Z" fill="#50F2F2"/>
</svg>
